<?xml version="1.0" standalone="no"?>
<!DOCTYPE svg PUBLIC "-//W3C//DTD SVG 20010904//EN"
 "http://www.w3.org/TR/2001/REC-SVG-20010904/DTD/svg10.dtd">
<svg version="1.0" xmlns="http://www.w3.org/2000/svg"
 width="4267.000000pt" height="4267.000000pt" viewBox="0 0 4267.000000 4267.000000"
 preserveAspectRatio="xMidYMid meet">

<g transform="translate(0.000000,4267.000000) scale(0.100000,-0.100000)"
fill="#000000" stroke="none">
<path d="M21687 34031 c-73 -81 -214 -317 -487 -816 -51 -93 -118 -217 -150
-275 -32 -58 -71 -130 -87 -160 -17 -30 -69 -125 -115 -210 -47 -85 -114 -209
-150 -275 -36 -66 -226 -415 -423 -775 -197 -360 -384 -702 -415 -760 -31 -58
-162 -296 -290 -530 -128 -234 -251 -459 -273 -500 -22 -41 -57 -104 -77 -140
-20 -36 -55 -99 -78 -141 -58 -109 -324 -596 -387 -709 -29 -52 -94 -171 -145
-265 -51 -93 -143 -262 -205 -375 -62 -113 -191 -349 -287 -525 -188 -343
-749 -1367 -893 -1630 -48 -88 -152 -277 -230 -420 -138 -252 -229 -417 -595
-1085 -95 -173 -202 -369 -237 -435 -36 -66 -73 -133 -83 -150 -9 -16 -34 -61
-55 -100 -21 -38 -86 -158 -145 -265 -59 -107 -124 -226 -145 -265 -21 -38
-61 -113 -90 -165 -60 -108 -260 -474 -520 -950 -98 -179 -242 -442 -320 -585
-78 -143 -236 -431 -350 -640 -397 -726 -438 -801 -548 -995 -131 -231 -260
-442 -282 -460 -19 -16 -44 7 -308 285 -163 172 -203 214 -361 385 -39 41 -97
104 -131 140 -34 36 -171 184 -305 330 -134 146 -289 315 -345 375 -56 61
-177 193 -270 295 -1548 1701 -2091 2281 -2149 2296 -45 11 -73 -4 -120 -65
-44 -57 -358 -531 -741 -1121 -105 -162 -226 -347 -267 -410 -41 -63 -133
-205 -205 -315 -71 -110 -164 -252 -205 -315 -88 -135 -190 -293 -263 -405
-29 -44 -224 -345 -435 -670 -210 -324 -410 -633 -444 -685 -33 -52 -101 -156
-151 -232 -49 -76 -124 -191 -166 -255 -219 -337 -479 -739 -534 -823 -34 -52
-136 -210 -227 -350 -91 -140 -204 -316 -252 -390 -49 -74 -117 -180 -153
-235 -36 -55 -106 -163 -156 -241 -51 -77 -120 -183 -153 -235 -131 -203 -682
-1051 -758 -1169 -85 -130 -261 -402 -381 -589 -38 -60 -160 -249 -270 -420
-110 -171 -250 -389 -311 -484 -61 -94 -151 -235 -200 -312 -93 -144 -560
-874 -878 -1372 -250 -390 -447 -698 -532 -828 -39 -60 -133 -207 -209 -325
-76 -118 -152 -237 -170 -265 -18 -27 -86 -133 -152 -235 -166 -259 -465 -720
-545 -842 -37 -57 -94 -146 -128 -198 -34 -52 -92 -142 -130 -200 -65 -99
-209 -322 -311 -483 -26 -39 -103 -160 -172 -267 l-126 -195 21321 -3 c11727
-1 21323 0 21326 2 2 3 -101 168 -230 368 -374 579 -781 1220 -1833 2888 -870
1379 -1008 1598 -1367 2165 -408 645 -731 1156 -1475 2330 -104 165 -329 518
-498 785 -296 467 -472 743 -736 1160 -183 288 -1136 1785 -1474 2315 -162
253 -341 534 -399 625 -58 91 -176 276 -263 412 -87 136 -315 494 -507 795
-193 302 -369 577 -392 613 -23 36 -218 342 -432 680 -215 338 -427 672 -472
741 -99 154 -185 259 -210 259 -42 0 -246 -268 -610 -802 -226 -330 -581 -845
-866 -1253 -77 -110 -185 -264 -239 -343 -216 -309 -454 -647 -780 -1105 -350
-493 -434 -607 -449 -606 -34 1 -252 350 -554 884 -96 171 -328 580 -515 910
-311 549 -494 871 -892 1570 -420 738 -592 1041 -1002 1765 -248 437 -589
1040 -759 1340 -169 300 -354 628 -412 730 -58 102 -194 344 -304 539 -110
194 -346 613 -525 930 -495 877 -779 1380 -1133 2011 -883 1572 -1488 2643
-1532 2713 -38 60 -63 61 -111 8z m128 -3283 c49 -105 223 -517 725 -1718 111
-267 289 -692 395 -945 196 -468 242 -578 300 -720 18 -44 140 -339 272 -655
132 -316 322 -773 423 -1015 100 -242 240 -577 310 -745 234 -561 389 -934
848 -2040 99 -239 235 -568 302 -730 67 -162 155 -374 195 -470 39 -96 107
-260 150 -365 43 -104 117 -284 165 -400 151 -363 405 -989 515 -1270 58 -148
117 -296 130 -328 14 -32 25 -63 25 -69 0 -9 -87 102 -397 510 -70 92 -155
203 -188 247 -85 110 -391 510 -473 619 -102 135 -603 776 -708 906 -365 454
-474 573 -474 518 0 -37 81 -783 100 -928 12 -86 86 -698 125 -1025 14 -121
32 -274 40 -340 45 -370 57 -487 50 -493 -33 -33 -910 1162 -2035 2773 -199
286 -366 524 -371 529 -6 6 -15 2 -23 -10 -17 -21 -151 -321 -220 -489 -24
-60 -79 -193 -121 -295 -66 -160 -421 -1048 -550 -1375 -24 -60 -78 -198 -120
-305 -43 -107 -90 -229 -105 -270 -16 -41 -52 -133 -80 -205 -28 -71 -64 -164
-80 -205 -16 -41 -49 -127 -73 -190 -25 -63 -90 -234 -146 -380 -56 -146 -113
-292 -126 -325 -13 -33 -60 -157 -105 -275 -44 -118 -87 -231 -95 -250 -18
-42 -171 -450 -301 -800 -52 -140 -99 -266 -105 -280 -6 -14 -55 -146 -109
-295 -55 -148 -105 -285 -113 -304 l-15 -35 -11 55 c-26 136 -63 370 -106 674
-68 495 -113 822 -145 1070 -11 88 -29 228 -40 310 -11 83 -27 206 -36 275 -8
69 -24 188 -34 265 -10 77 -26 194 -35 260 -8 66 -27 203 -41 305 -14 102 -34
253 -44 335 -24 182 -57 428 -66 484 -4 23 -12 41 -18 41 -27 0 -120 -98 -589
-619 -271 -300 -510 -566 -533 -591 -50 -55 -457 -506 -758 -840 -121 -135
-237 -263 -257 -285 -20 -22 -148 -164 -284 -315 -136 -151 -307 -340 -379
-420 -73 -80 -255 -282 -406 -450 -151 -168 -277 -307 -280 -310 -3 -3 -86
-95 -185 -205 -408 -454 -1327 -1468 -1355 -1495 -3 -3 -80 -86 -171 -185
-160 -173 -301 -315 -313 -315 -3 0 31 72 74 160 44 88 80 162 80 164 0 2 54
115 121 252 67 137 140 290 164 339 24 50 91 189 150 310 59 121 140 288 180
370 40 83 213 438 385 790 448 916 525 1074 595 1220 34 72 113 234 175 360
62 127 153 313 202 415 225 461 284 582 408 835 73 149 172 351 220 450 48 99
158 324 245 500 87 176 219 446 295 600 153 311 406 824 735 1490 120 242 295
598 390 790 95 193 295 598 445 900 150 303 370 748 490 990 120 242 365 737
545 1100 364 734 667 1348 845 1710 65 132 197 402 295 600 915 1858 973 1977
1034 2138 6 15 13 27 16 27 4 0 30 -51 60 -112z m10993 -9340 c158 -238 352
-532 432 -653 79 -121 217 -330 305 -465 442 -671 2128 -3255 2395 -3670 48
-74 121 -187 162 -250 132 -201 726 -1122 953 -1475 119 -187 237 -369 260
-405 145 -223 396 -632 391 -637 -11 -11 -115 88 -367 349 -964 997 -2817
2869 -2886 2915 -13 8 -30 12 -39 9 -23 -9 -14 -65 41 -280 52 -204 162 -635
250 -981 35 -137 100 -394 145 -570 46 -176 118 -457 161 -625 43 -168 107
-420 143 -560 163 -630 188 -732 182 -738 -19 -18 -549 565 -1011 1113 -27 33
-77 91 -110 130 -33 38 -96 113 -140 165 -44 52 -82 97 -85 100 -7 6 -173 203
-684 814 -676 809 -1081 1283 -1164 1364 -28 27 -33 27 -85 1 -65 -34 -433
-289 -718 -500 -48 -35 -145 -107 -215 -159 -293 -215 -1358 -1014 -1674
-1256 -58 -44 -199 -152 -315 -239 -115 -88 -291 -222 -390 -297 -99 -76 -200
-154 -225 -173 -25 -19 -301 -232 -615 -473 -592 -455 -983 -756 -1095 -841
-36 -28 -198 -152 -360 -277 -352 -271 -636 -487 -860 -654 -91 -68 -171 -128
-179 -134 -29 -22 -3 21 106 175 159 225 603 832 903 1234 360 483 539 725
760 1025 79 107 173 236 210 285 69 93 119 161 277 377 51 71 135 185 186 255
525 718 798 1096 1416 1953 249 345 511 711 550 766 59 84 425 595 571 799
124 172 271 379 669 940 801 1129 1423 1973 1453 1975 5 0 137 -195 296 -432z
m-22662 -980 c294 -298 490 -504 1029 -1083 642 -688 1084 -1156 1392 -1473
l53 -54 -50 -100 c-62 -123 -87 -169 -208 -378 -232 -400 -318 -555 -393 -707
-64 -129 -85 -163 -101 -163 -13 0 -203 182 -536 514 -519 515 -582 576 -598
576 -5 0 -39 -64 -76 -143 -195 -411 -209 -441 -304 -644 -20 -43 -103 -220
-184 -393 -81 -173 -161 -344 -178 -380 -16 -36 -54 -114 -82 -175 -29 -60
-69 -146 -90 -190 -197 -419 -455 -942 -528 -1070 -60 -105 -119 -185 -137
-185 -18 0 -60 138 -129 420 -101 416 -132 545 -182 760 -116 489 -204 780
-246 806 -10 6 -35 -12 -167 -120 -85 -70 -372 -311 -477 -400 -39 -34 -93
-79 -120 -102 -74 -62 -473 -402 -614 -524 -69 -59 -208 -179 -310 -266 -277
-237 -537 -461 -610 -525 -36 -31 -195 -171 -355 -310 -285 -248 -448 -394
-695 -622 -69 -63 -127 -113 -129 -111 -2 2 30 54 71 116 106 161 506 777 810
1248 84 130 152 235 311 480 41 63 168 259 283 435 114 176 248 383 298 460
51 77 249 382 441 677 193 296 399 613 459 705 204 313 802 1227 961 1468 87
132 196 299 243 370 110 168 615 926 717 1075 102 151 175 250 184 250 4 0
115 -109 247 -242z"/>
</g>
</svg>
